HIERARCHY
ROOT Hips
{
	OFFSET 0.00000 0.00000 0.00000
	CHANNELS 6 Xposition Yposition Zposition Zrotation Yrotation Xrotation 
	JOINT LHipJoint
	{
		OFFSET 0 0 0
		CHANNELS 3 Zrotation Yrotation Xrotation
		JOINT LeftUpLeg
		{
			OFFSET 1.70593 -1.62653 0.87602
			CHANNELS 3 Zrotation Yrotation Xrotation
			JOINT LeftLeg
			{
				OFFSET 2.32330 -6.38322 0.00000
				CHANNELS 3 Zrotation Yrotation Xrotation
				JOINT LeftFoot
				{
					OFFSET 2.45016 -6.73177 0.00000
					CHANNELS 3 Zrotation Yrotation Xrotation
					JOINT LeftToeBase
					{
						OFFSET 0.13029 -0.35798 1.96980
						CHANNELS 3 Zrotation Yrotation Xrotation
						End Site
						{
							OFFSET 0.00000 -0.00000 1.01270
						}
					}
				}
			}
		}
	}
	JOINT RHipJoint
	{
		OFFSET 0 0 0
		CHANNELS 3 Zrotation Yrotation Xrotation
		JOINT RightUpLeg
		{
			OFFSET -1.80599 -1.62652 0.87602
			CHANNELS 3 Zrotation Yrotation Xrotation
			JOINT RightLeg
			{
				OFFSET -2.45375 -6.74162 0.00000
				CHANNELS 3 Zrotation Yrotation Xrotation
				JOINT RightFoot
				{
					OFFSET -2.45828 -6.75406 0.00000
					CHANNELS 3 Zrotation Yrotation Xrotation
					JOINT RightToeBase
					{
						OFFSET -0.13801 -0.37917 1.88456
						CHANNELS 3 Zrotation Yrotation Xrotation
						End Site
						{
							OFFSET -0.00000 -0.00000 0.97281
						}
					}
				}
			}
		}
	}
	JOINT LowerBack
	{
		OFFSET 0 0 0
		CHANNELS 3 Zrotation Yrotation Xrotation
		JOINT Spine
		{
			OFFSET 0.01003 2.00576 -0.14267
			CHANNELS 3 Zrotation Yrotation Xrotation
			JOINT Spine1
			{
				OFFSET 0.00908 2.01191 0.01660
				CHANNELS 3 Zrotation Yrotation Xrotation
				JOINT Neck
				{
					OFFSET 0 0 0
					CHANNELS 3 Zrotation Yrotation Xrotation
					JOINT Neck1
					{
						OFFSET -0.05849 1.60301 0.18934
						CHANNELS 3 Zrotation Yrotation Xrotation
						JOINT Head
						{
							OFFSET 0.01775 1.59435 -0.07960
							CHANNELS 3 Zrotation Yrotation Xrotation
							End Site
							{
								OFFSET 0.01210 1.70732 -0.05248
							}
						}
					}
				}
				JOINT LeftShoulder
				{
					OFFSET 0 0 0
					CHANNELS 3 Zrotation Yrotation Xrotation
					JOINT LeftArm
					{
						OFFSET 3.15315 1.26460 0.30667
						CHANNELS 3 Zrotation Yrotation Xrotation
						JOINT LeftForeArm
						{
							OFFSET 4.97694 -0.00000 -0.00000
							CHANNELS 3 Zrotation Yrotation Xrotation
							JOINT LeftHand
							{
								OFFSET 3.14391 -0.00000 -0.00000
								CHANNELS 3 Zrotation Yrotation Xrotation
								JOINT LeftFingerBase
								{
									OFFSET 0 0 0
									CHANNELS 3 Zrotation Yrotation Xrotation
									JOINT LeftHandIndex1
									{
										OFFSET 0.59358 -0.00000 -0.00000
										CHANNELS 3 Zrotation Yrotation Xrotation
										End Site
										{
											OFFSET 0.47856 -0.00000 -0.00000
										}
									}
								}
								JOINT LThumb
								{
									OFFSET 0 0 0
									CHANNELS 3 Zrotation Yrotation Xrotation
									End Site
									{
										OFFSET 0.48587 -0.00000 0.48587
									}
								}
							}
						}
					}
				}
				JOINT RightShoulder
				{
					OFFSET 0 0 0
					CHANNELS 3 Zrotation Yrotation Xrotation
					JOINT RightArm
					{
						OFFSET -3.25568 1.35581 0.18982
						CHANNELS 3 Zrotation Yrotation Xrotation
						JOINT RightForeArm
						{
							OFFSET -4.90473 -0.00000 0.00000
							CHANNELS 3 Zrotation Yrotation Xrotation
							JOINT RightHand
							{
								OFFSET -3.21621 0.00006 -0.00004
								CHANNELS 3 Zrotation Yrotation Xrotation
								JOINT RightFingerBase
								{
									OFFSET 0 0 0
									CHANNELS 3 Zrotation Yrotation Xrotation
									JOINT RightHandIndex1
									{
										OFFSET -0.62353 -0.00000 -0.00000
										CHANNELS 3 Zrotation Yrotation Xrotation
										End Site
										{
											OFFSET -0.50270 -0.00000 -0.00000
										}
									}
								}
								JOINT RThumb
								{
									OFFSET 0 0 0
									CHANNELS 3 Zrotation Yrotation Xrotation
									End Site
									{
										OFFSET -0.51038 -0.00000 0.51038
									}
								}
							}
						}
					}
				}
			}
		}
	}
}
MOTION
Frames: 6
Frame Time: .0083333
9.0502 16.1137 -1.6100 4.1339 0.6190 6.8849 0.0000 0.0000 0.0000 -28.3099 2.0545 4.8221 0.5777 4.8671 13.5299 0.4795 -12.1671 -14.0105 0.2057 2.9203 8.0571 0.0000 0.0000 0.0000 13.7793 13.0307 -43.5702 -3.4190 -11.3443 33.4502 -0.8069 7.2013 -16.0680 -0.1050 2.0890 -5.7518 -6.3370 -0.1630 -0.0129 -1.0945 -0.3430 -2.7665 2.4280 -0.0329 -2.8229 -2.0723 -0.0791 -6.4445 3.7506 -0.4442 15.9196 1.4953 -0.0639 5.8786 0.0000 0.0000 0.0000 -79.6305 -24.3582 41.2200 20.0156 -30.6611 -5.5393 -0.0000 0.0000 -12.9309 26.8271 -16.6865 -8.2623 -7.1250 0.0000 -0.0000 -0.6631 11.4130 0.5188 0.0000 0.0000 0.0000 91.0778 -28.3165 6.5494 -12.8635 21.0869 -2.4040 0.0000 0.0000 12.5580 -9.9254 -36.8584 5.9920 7.1250 -0.0000 -0.0000 30.7264 -64.7114 -15.3307
9.0509 16.0836 -1.4291 4.3666 0.7673 6.8509 0.0000 0.0000 0.0000 -28.4625 2.6566 6.5785 0.4195 4.1574 11.5199 0.4860 -11.7055 -13.9005 0.1422 2.4304 6.6968 0.0000 0.0000 0.0000 13.1999 13.5163 -44.0549 -3.2339 -11.0644 32.4972 -0.8186 7.4826 -16.2036 -0.1339 2.3588 -6.4983 -6.4361 -0.2793 -0.2948 -1.0838 -0.4732 -2.6968 2.4957 -0.1039 -2.5796 -2.3720 -0.0345 -6.2717 4.0166 -0.3904 15.9044 1.6324 -0.0379 5.8423 0.0000 -0.0000 0.0000 -79.4405 -25.0306 41.8997 20.5774 -31.3317 -5.8286 -0.0000 0.0000 -13.4322 26.4185 -17.2457 -8.3788 -7.1250 0.0000 -0.0000 -0.9870 10.8643 0.7834 0.0000 -0.0000 0.0000 90.9889 -28.4790 6.2939 -12.7798 20.9637 -2.3739 0.0000 0.0000 12.5175 -15.8221 -35.4223 9.3276 7.1250 -0.0000 -0.0000 22.6365 -65.0971 -11.2654
9.0546 16.0476 -1.2343 4.9279 0.8943 6.6115 0.0000 0.0000 0.0000 -28.9415 3.3058 8.7965 0.2686 3.3342 9.2106 0.4772 -11.0895 -13.5906 0.1196 2.2298 6.1412 0.0000 0.0000 0.0000 12.3821 13.6288 -44.4318 -3.0650 -10.7995 31.6065 -0.7647 7.6643 -15.6985 -0.1408 2.4185 -6.6638 -6.8769 -0.4210 -0.4963 -1.1520 -0.6456 -2.5829 2.6721 -0.1910 -2.3310 -2.1547 0.0052 -6.1825 3.7124 -0.3156 15.8622 1.5047 -0.0119 5.8112 -0.0000 -0.0000 0.0000 -79.2949 -25.5894 42.3065 21.1576 -32.0118 -6.1333 -0.0000 0.0000 -13.8497 26.0257 -17.8045 -8.4918 -7.1250 0.0000 -0.0000 -1.2992 10.3173 1.0458 -0.0000 -0.0000 0.0000 90.7418 -28.9370 6.6768 -12.8246 21.0297 -2.3900 0.0000 0.0000 11.8883 -18.3780 -34.4395 10.6411 7.1250 -0.0000 -0.0000 18.7142 -64.9039 -9.1597
9.0535 16.0039 -1.0563 5.1199 1.2181 6.2684 0.0000 0.0000 0.0000 -28.9476 3.8392 11.1168 0.1506 2.5007 6.8917 0.4571 -10.4687 -13.1679 0.0902 1.9372 5.3322 0.0000 0.0000 0.0000 11.9516 13.7655 -44.5334 -2.8844 -10.5055 30.6296 -0.7147 7.6185 -15.1959 -0.1231 2.2617 -6.2294 -6.9154 -0.5048 -0.3400 -1.1831 -0.7633 -2.4144 2.6640 -0.2562 -2.2328 -1.8024 -0.0076 -6.5696 3.3984 -0.3280 16.0897 1.3486 -0.0155 5.9501 0.0000 0.0000 0.0000 -79.1806 -26.2642 42.8231 21.7629 -32.7080 -6.4573 -0.0000 0.0000 -13.8214 25.4448 -17.9506 -8.3423 -7.1250 0.0000 -0.0000 -1.6933 10.2503 1.3655 0.0000 0.0000 0.0000 90.6721 -29.3136 7.2502 -12.9567 21.2238 -2.4376 0.0000 0.0000 10.9478 -18.8993 -34.7314 11.0372 7.1250 -0.0000 -0.0000 18.4016 -65.3224 -9.1797
9.0438 15.9568 -0.8864 5.0527 1.5394 5.9295 0.0000 0.0000 0.0000 -28.6735 4.3314 13.2593 0.0730 1.7430 4.7958 0.4690 -9.7491 -13.0654 0.0260 1.0405 2.8602 0.0000 0.0000 0.0000 11.8715 13.9715 -44.4317 -2.6944 -10.1831 29.5717 -0.6816 7.6775 -14.8671 -0.0760 1.7787 -4.8945 -6.8560 -0.5564 -0.0563 -1.0750 -0.8448 -2.2285 2.7460 -0.3023 -2.1908 -1.7592 -0.0651 -6.6920 3.2373 -0.3845 16.0804 1.2867 -0.0512 5.9700 0.0000 -0.0000 0.0000 -79.0916 -26.9467 43.6812 22.3835 -33.4078 -6.7958 -0.0000 0.0000 -14.1231 25.8371 -17.8520 -8.4434 -7.1250 0.0000 -0.0000 -1.4272 10.2955 1.1496 0.0000 -0.0000 0.0000 90.7836 -29.4517 7.0720 -13.0781 21.4015 -2.4817 0.0000 0.0000 10.7396 -18.5156 -34.8268 10.8276 7.1250 -0.0000 -0.0000 18.9424 -65.3038 -9.4501
9.0314 15.9132 -0.7153 4.9559 1.6810 5.8570 0.0000 0.0000 0.0000 -28.3033 5.3318 16.4424 0.0000 -0.0000 -0.0000 0.4115 -8.0520 -11.9359 0.0034 0.3784 1.0398 0.0000 0.0000 0.0000 11.8102 14.2854 -44.7239 -2.5538 -9.9351 28.7669 -0.6569 7.7654 -14.6241 -0.0763 1.7815 -4.9021 -6.8664 -0.5881 0.0363 -0.8950 -0.8914 -2.2237 2.9396 -0.3224 -2.2306 -1.6930 -0.0968 -6.6757 2.9455 -0.3904 16.1385 1.1833 -0.0716 5.9854 0.0000 0.0000 0.0000 -79.1622 -27.3695 44.3272 22.9827 -34.0699 -7.1286 -0.0000 0.0000 -14.3786 26.2622 -18.0082 -8.6730 -7.1250 0.0000 -0.0000 -1.1650 10.0576 0.9438 0.0000 0.0000 0.0000 90.6887 -29.8760 7.0937 -13.2027 21.5835 -2.5274 0.0000 0.0000 10.5251 -17.8119 -34.7378 10.3748 7.1250 -0.0000 -0.0000 19.6615 -65.0244 -9.6946
